# Tiled2Unity generated file. Do not modify by hand.
# Wavefront file for 'meh2_mesh_0005.obj'

# Vertices (Count = 24)
v -544 -752 0
v -560 -752 0
v -560 -736 0
v -544 -736 0
v -576 -752 0
v -592 -752 0
v -592 -736 0
v -576 -736 0
v -592 -752 0
v -608 -752 0
v -608 -736 0
v -592 -736 0
v -576 -768 0
v -592 -768 0
v -592 -752 0
v -576 -752 0
v -656 -848 0
v -672 -848 0
v -672 -832 0
v -656 -832 0
v -720 -848 0
v -736 -848 0
v -736 -832 0
v -720 -832 0

# Texture cooridinates (Count = 16)
vt 0.1036585 0.8360656
vt 0.1361789 0.8360656
vt 0.1361789 0.8885246
vt 0.1036585 0.8885246
vt 0 0.8360656
vt 0.03252032 0.8360656
vt 0.03252032 0.8885246
vt 0 0.8885246
vt 0.4837398 0.1672131
vt 0.5162601 0.1672131
vt 0.5162601 0.2196721
vt 0.4837398 0.2196721
vt 0.449187 0
vt 0.4817073 0
vt 0.4817073 0.052459
vt 0.449187 0.052459

# Normal
vn 0 0 -1

# Mesh description
g meh2_mesh_0005

# Faces
f 1/1/1 2/2/1 3/3/1 4/4/1
f 5/5/1 6/6/1 7/7/1 8/8/1
f 9/9/1 10/10/1 11/11/1 12/12/1
f 13/9/1 14/10/1 15/11/1 16/12/1
f 17/13/1 18/14/1 19/15/1 20/16/1
f 21/13/1 22/14/1 23/15/1 24/16/1

