# Tiled2Unity generated file. Do not modify by hand.
# Wavefront file for 'meh2_mesh_0004.obj'

# Vertices (Count = 176)
v -480 -704 0
v -496 -704 0
v -496 -688 0
v -480 -688 0
v -496 -704 0
v -512 -704 0
v -512 -688 0
v -496 -688 0
v -512 -704 0
v -528 -704 0
v -528 -688 0
v -512 -688 0
v -528 -704 0
v -544 -704 0
v -544 -688 0
v -528 -688 0
v -544 -704 0
v -560 -704 0
v -560 -688 0
v -544 -688 0
v -576 -704 0
v -592 -704 0
v -592 -688 0
v -576 -688 0
v -592 -704 0
v -608 -704 0
v -608 -688 0
v -592 -688 0
v -608 -704 0
v -624 -704 0
v -624 -688 0
v -608 -688 0
v -624 -704 0
v -640 -704 0
v -640 -688 0
v -624 -688 0
v -640 -704 0
v -656 -704 0
v -656 -688 0
v -640 -688 0
v -736 -704 0
v -752 -704 0
v -752 -688 0
v -736 -688 0
v -752 -704 0
v -768 -704 0
v -768 -688 0
v -752 -688 0
v -768 -704 0
v -784 -704 0
v -784 -688 0
v -768 -688 0
v -784 -704 0
v -800 -704 0
v -800 -688 0
v -784 -688 0
v -800 -704 0
v -816 -704 0
v -816 -688 0
v -800 -688 0
v -832 -704 0
v -848 -704 0
v -848 -688 0
v -832 -688 0
v -848 -704 0
v -864 -704 0
v -864 -688 0
v -848 -688 0
v -864 -704 0
v -880 -704 0
v -880 -688 0
v -864 -688 0
v -880 -704 0
v -896 -704 0
v -896 -688 0
v -880 -688 0
v -896 -704 0
v -912 -704 0
v -912 -688 0
v -896 -688 0
v -480 -720 0
v -496 -720 0
v -496 -704 0
v -480 -704 0
v -512 -720 0
v -528 -720 0
v -528 -704 0
v -512 -704 0
v -544 -720 0
v -560 -720 0
v -560 -704 0
v -544 -704 0
v -576 -720 0
v -592 -720 0
v -592 -704 0
v -576 -704 0
v -608 -720 0
v -624 -720 0
v -624 -704 0
v -608 -704 0
v -640 -720 0
v -656 -720 0
v -656 -704 0
v -640 -704 0
v -736 -720 0
v -752 -720 0
v -752 -704 0
v -736 -704 0
v -768 -720 0
v -784 -720 0
v -784 -704 0
v -768 -704 0
v -800 -720 0
v -816 -720 0
v -816 -704 0
v -800 -704 0
v -832 -720 0
v -848 -720 0
v -848 -704 0
v -832 -704 0
v -864 -720 0
v -880 -720 0
v -880 -704 0
v -864 -704 0
v -896 -720 0
v -912 -720 0
v -912 -704 0
v -896 -704 0
v -480 -736 0
v -496 -736 0
v -496 -720 0
v -480 -720 0
v -512 -736 0
v -528 -736 0
v -528 -720 0
v -512 -720 0
v -544 -736 0
v -560 -736 0
v -560 -720 0
v -544 -720 0
v -576 -736 0
v -592 -736 0
v -592 -720 0
v -576 -720 0
v -608 -736 0
v -624 -736 0
v -624 -720 0
v -608 -720 0
v -640 -736 0
v -656 -736 0
v -656 -720 0
v -640 -720 0
v -736 -736 0
v -752 -736 0
v -752 -720 0
v -736 -720 0
v -768 -736 0
v -784 -736 0
v -784 -720 0
v -768 -720 0
v -800 -736 0
v -816 -736 0
v -816 -720 0
v -800 -720 0
v -832 -736 0
v -848 -736 0
v -848 -720 0
v -832 -720 0
v -864 -736 0
v -880 -736 0
v -880 -720 0
v -864 -720 0
v -896 -736 0
v -912 -736 0
v -912 -720 0
v -896 -720 0

# Texture cooridinates (Count = 28)
vt 0.1382114 0.557377
vt 0.1707317 0.557377
vt 0.1707317 0.6098361
vt 0.1382114 0.6098361
vt 0.1727642 0.557377
vt 0.2052846 0.557377
vt 0.2052846 0.6098361
vt 0.1727642 0.6098361
vt 0.2073171 0.557377
vt 0.2398374 0.557377
vt 0.2398374 0.6098361
vt 0.2073171 0.6098361
vt 0.2418699 0.557377
vt 0.2743903 0.557377
vt 0.2743903 0.6098361
vt 0.2418699 0.6098361
vt 0.1382114 0.4459016
vt 0.1707317 0.4459016
vt 0.1707317 0.4983606
vt 0.1382114 0.4983606
vt 0.2073171 0.4459016
vt 0.2398374 0.4459016
vt 0.2398374 0.4983606
vt 0.2073171 0.4983606
vt 0.2418699 0.4459016
vt 0.2743903 0.4459016
vt 0.2743903 0.4983606
vt 0.2418699 0.4983606

# Normal
vn 0 0 -1

# Mesh description
g meh2_mesh_0004

# Faces
f 1/1/1 2/2/1 3/3/1 4/4/1
f 5/5/1 6/6/1 7/7/1 8/8/1
f 9/9/1 10/10/1 11/11/1 12/12/1
f 13/5/1 14/6/1 15/7/1 16/8/1
f 17/13/1 18/14/1 19/15/1 20/16/1
f 21/1/1 22/2/1 23/3/1 24/4/1
f 25/5/1 26/6/1 27/7/1 28/8/1
f 29/9/1 30/10/1 31/11/1 32/12/1
f 33/5/1 34/6/1 35/7/1 36/8/1
f 37/13/1 38/14/1 39/15/1 40/16/1
f 41/1/1 42/2/1 43/3/1 44/4/1
f 45/5/1 46/6/1 47/7/1 48/8/1
f 49/9/1 50/10/1 51/11/1 52/12/1
f 53/5/1 54/6/1 55/7/1 56/8/1
f 57/13/1 58/14/1 59/15/1 60/16/1
f 61/1/1 62/2/1 63/3/1 64/4/1
f 65/5/1 66/6/1 67/7/1 68/8/1
f 69/9/1 70/10/1 71/11/1 72/12/1
f 73/5/1 74/6/1 75/7/1 76/8/1
f 77/13/1 78/14/1 79/15/1 80/16/1
f 81/17/1 82/18/1 83/19/1 84/20/1
f 85/21/1 86/22/1 87/23/1 88/24/1
f 89/25/1 90/26/1 91/27/1 92/28/1
f 93/17/1 94/18/1 95/19/1 96/20/1
f 97/21/1 98/22/1 99/23/1 100/24/1
f 101/25/1 102/26/1 103/27/1 104/28/1
f 105/17/1 106/18/1 107/19/1 108/20/1
f 109/21/1 110/22/1 111/23/1 112/24/1
f 113/25/1 114/26/1 115/27/1 116/28/1
f 117/17/1 118/18/1 119/19/1 120/20/1
f 121/21/1 122/22/1 123/23/1 124/24/1
f 125/25/1 126/26/1 127/27/1 128/28/1
f 129/17/1 130/18/1 131/19/1 132/20/1
f 133/21/1 134/22/1 135/23/1 136/24/1
f 137/25/1 138/26/1 139/27/1 140/28/1
f 141/17/1 142/18/1 143/19/1 144/20/1
f 145/21/1 146/22/1 147/23/1 148/24/1
f 149/25/1 150/26/1 151/27/1 152/28/1
f 153/17/1 154/18/1 155/19/1 156/20/1
f 157/21/1 158/22/1 159/23/1 160/24/1
f 161/25/1 162/26/1 163/27/1 164/28/1
f 165/17/1 166/18/1 167/19/1 168/20/1
f 169/21/1 170/22/1 171/23/1 172/24/1
f 173/25/1 174/26/1 175/27/1 176/28/1

