# Tiled2Unity generated file. Do not modify by hand.
# Wavefront file for 'test_mesh_0005.obj'

# Vertices (Count = 144)
v -736 -272 0
v -752 -272 0
v -752 -256 0
v -736 -256 0
v -720 -272 0
v -736 -272 0
v -736 -256 0
v -720 -256 0
v -736 -288 0
v -752 -288 0
v -752 -272 0
v -736 -272 0
v -720 -288 0
v -736 -288 0
v -736 -272 0
v -720 -272 0
v -736 -304 0
v -752 -304 0
v -752 -288 0
v -736 -288 0
v -720 -304 0
v -736 -304 0
v -736 -288 0
v -720 -288 0
v -736 -320 0
v -752 -320 0
v -752 -304 0
v -736 -304 0
v -720 -320 0
v -736 -320 0
v -736 -304 0
v -720 -304 0
v -736 -336 0
v -752 -336 0
v -752 -320 0
v -736 -320 0
v -720 -336 0
v -736 -336 0
v -736 -320 0
v -720 -320 0
v -736 -352 0
v -752 -352 0
v -752 -336 0
v -736 -336 0
v -720 -352 0
v -736 -352 0
v -736 -336 0
v -720 -336 0
v -736 -368 0
v -752 -368 0
v -752 -352 0
v -736 -352 0
v -720 -368 0
v -736 -368 0
v -736 -352 0
v -720 -352 0
v -736 -384 0
v -752 -384 0
v -752 -368 0
v -736 -368 0
v -720 -384 0
v -736 -384 0
v -736 -368 0
v -720 -368 0
v -736 -400 0
v -752 -400 0
v -752 -384 0
v -736 -384 0
v -720 -400 0
v -736 -400 0
v -736 -384 0
v -720 -384 0
v -736 -416 0
v -752 -416 0
v -752 -400 0
v -736 -400 0
v -720 -416 0
v -736 -416 0
v -736 -400 0
v -720 -400 0
v -736 -432 0
v -752 -432 0
v -752 -416 0
v -736 -416 0
v -720 -432 0
v -736 -432 0
v -736 -416 0
v -720 -416 0
v -736 -448 0
v -752 -448 0
v -752 -432 0
v -736 -432 0
v -720 -448 0
v -736 -448 0
v -736 -432 0
v -720 -432 0
v -736 -464 0
v -752 -464 0
v -752 -448 0
v -736 -448 0
v -720 -464 0
v -736 -464 0
v -736 -448 0
v -720 -448 0
v -736 -480 0
v -752 -480 0
v -752 -464 0
v -736 -464 0
v -720 -480 0
v -736 -480 0
v -736 -464 0
v -720 -464 0
v -736 -496 0
v -752 -496 0
v -752 -480 0
v -736 -480 0
v -720 -496 0
v -736 -496 0
v -736 -480 0
v -720 -480 0
v -736 -512 0
v -752 -512 0
v -752 -496 0
v -736 -496 0
v -720 -512 0
v -736 -512 0
v -736 -496 0
v -720 -496 0
v -736 -528 0
v -752 -528 0
v -752 -512 0
v -736 -512 0
v -720 -528 0
v -736 -528 0
v -736 -512 0
v -720 -512 0
v -736 -544 0
v -752 -544 0
v -752 -528 0
v -736 -528 0
v -720 -544 0
v -736 -544 0
v -736 -528 0
v -720 -528 0

# Texture cooridinates (Count = 8)
vt 0.2418699 0.05573773
vt 0.2743903 0.05573773
vt 0.2743903 0.1081967
vt 0.2418699 0.1081967
vt 0.1727642 0.05573773
vt 0.2052846 0.05573773
vt 0.2052846 0.1081967
vt 0.1727642 0.1081967

# Normal
vn 0 0 -1

# Mesh description
g test_mesh_0005

# Faces
f 1/1/1 2/2/1 3/3/1 4/4/1
f 5/5/1 6/6/1 7/7/1 8/8/1
f 9/1/1 10/2/1 11/3/1 12/4/1
f 13/5/1 14/6/1 15/7/1 16/8/1
f 17/1/1 18/2/1 19/3/1 20/4/1
f 21/5/1 22/6/1 23/7/1 24/8/1
f 25/1/1 26/2/1 27/3/1 28/4/1
f 29/5/1 30/6/1 31/7/1 32/8/1
f 33/1/1 34/2/1 35/3/1 36/4/1
f 37/5/1 38/6/1 39/7/1 40/8/1
f 41/1/1 42/2/1 43/3/1 44/4/1
f 45/5/1 46/6/1 47/7/1 48/8/1
f 49/1/1 50/2/1 51/3/1 52/4/1
f 53/5/1 54/6/1 55/7/1 56/8/1
f 57/1/1 58/2/1 59/3/1 60/4/1
f 61/5/1 62/6/1 63/7/1 64/8/1
f 65/1/1 66/2/1 67/3/1 68/4/1
f 69/5/1 70/6/1 71/7/1 72/8/1
f 73/1/1 74/2/1 75/3/1 76/4/1
f 77/5/1 78/6/1 79/7/1 80/8/1
f 81/1/1 82/2/1 83/3/1 84/4/1
f 85/5/1 86/6/1 87/7/1 88/8/1
f 89/1/1 90/2/1 91/3/1 92/4/1
f 93/5/1 94/6/1 95/7/1 96/8/1
f 97/1/1 98/2/1 99/3/1 100/4/1
f 101/5/1 102/6/1 103/7/1 104/8/1
f 105/1/1 106/2/1 107/3/1 108/4/1
f 109/5/1 110/6/1 111/7/1 112/8/1
f 113/1/1 114/2/1 115/3/1 116/4/1
f 117/5/1 118/6/1 119/7/1 120/8/1
f 121/1/1 122/2/1 123/3/1 124/4/1
f 125/5/1 126/6/1 127/7/1 128/8/1
f 129/1/1 130/2/1 131/3/1 132/4/1
f 133/5/1 134/6/1 135/7/1 136/8/1
f 137/1/1 138/2/1 139/3/1 140/4/1
f 141/5/1 142/6/1 143/7/1 144/8/1

