# Tiled2Unity generated file. Do not modify by hand.
# Wavefront file for 'test_mesh_0003.obj'

# Vertices (Count = 24)
v -704 -512 0
v -720 -512 0
v -720 -496 0
v -704 -496 0
v -704 -528 0
v -720 -528 0
v -720 -512 0
v -704 -512 0
v -688 -528 0
v -704 -528 0
v -704 -512 0
v -688 -512 0
v -656 -528 0
v -672 -528 0
v -672 -512 0
v -656 -512 0
v -640 -528 0
v -656 -528 0
v -656 -512 0
v -640 -512 0
v -592 -528 0
v -608 -528 0
v -608 -512 0
v -592 -512 0

# Texture cooridinates (Count = 20)
vt 0.4837398 0.390164
vt 0.5162601 0.390164
vt 0.5162601 0.442623
vt 0.4837398 0.442623
vt 0.5182927 0.390164
vt 0.550813 0.390164
vt 0.550813 0.442623
vt 0.5182927 0.442623
vt 0.3800813 0.1672131
vt 0.4126016 0.1672131
vt 0.4126016 0.2196721
vt 0.3800813 0.2196721
vt 0.4837398 0.2196721
vt 0.4837398 0.1672131
vt 0.5162601 0.1672131
vt 0.5162601 0.2196721
vt 0 0.8360656
vt 0.03252032 0.8360656
vt 0.03252032 0.8885246
vt 0 0.8885246

# Normal
vn 0 0 -1

# Mesh description
g test_mesh_0003

# Faces
f 1/1/1 2/2/1 3/3/1 4/4/1
f 5/5/1 6/6/1 7/7/1 8/8/1
f 9/5/1 10/6/1 11/7/1 12/8/1
f 13/9/1 14/10/1 15/11/1 16/12/1
f 17/13/1 18/14/1 19/15/1 20/16/1
f 21/17/1 22/18/1 23/19/1 24/20/1

