# Tiled2Unity generated file. Do not modify by hand.
# Wavefront file for 'test_mesh_0001.obj'

# Vertices (Count = 480)
v -736 -544 0
v -752 -544 0
v -752 -528 0
v -736 -528 0
v -720 -544 0
v -736 -544 0
v -736 -528 0
v -720 -528 0
v -704 -544 0
v -720 -544 0
v -720 -528 0
v -704 -528 0
v -688 -544 0
v -704 -544 0
v -704 -528 0
v -688 -528 0
v -672 -544 0
v -688 -544 0
v -688 -528 0
v -672 -528 0
v -656 -544 0
v -672 -544 0
v -672 -528 0
v -656 -528 0
v -640 -544 0
v -656 -544 0
v -656 -528 0
v -640 -528 0
v -624 -544 0
v -640 -544 0
v -640 -528 0
v -624 -528 0
v -608 -544 0
v -624 -544 0
v -624 -528 0
v -608 -528 0
v -592 -544 0
v -608 -544 0
v -608 -528 0
v -592 -528 0
v -736 -560 0
v -752 -560 0
v -752 -544 0
v -736 -544 0
v -720 -560 0
v -736 -560 0
v -736 -544 0
v -720 -544 0
v -704 -560 0
v -720 -560 0
v -720 -544 0
v -704 -544 0
v -688 -560 0
v -704 -560 0
v -704 -544 0
v -688 -544 0
v -672 -560 0
v -688 -560 0
v -688 -544 0
v -672 -544 0
v -656 -560 0
v -672 -560 0
v -672 -544 0
v -656 -544 0
v -640 -560 0
v -656 -560 0
v -656 -544 0
v -640 -544 0
v -624 -560 0
v -640 -560 0
v -640 -544 0
v -624 -544 0
v -608 -560 0
v -624 -560 0
v -624 -544 0
v -608 -544 0
v -592 -560 0
v -608 -560 0
v -608 -544 0
v -592 -544 0
v -736 -576 0
v -752 -576 0
v -752 -560 0
v -736 -560 0
v -720 -576 0
v -736 -576 0
v -736 -560 0
v -720 -560 0
v -704 -576 0
v -720 -576 0
v -720 -560 0
v -704 -560 0
v -688 -576 0
v -704 -576 0
v -704 -560 0
v -688 -560 0
v -672 -576 0
v -688 -576 0
v -688 -560 0
v -672 -560 0
v -656 -576 0
v -672 -576 0
v -672 -560 0
v -656 -560 0
v -640 -576 0
v -656 -576 0
v -656 -560 0
v -640 -560 0
v -624 -576 0
v -640 -576 0
v -640 -560 0
v -624 -560 0
v -608 -576 0
v -624 -576 0
v -624 -560 0
v -608 -560 0
v -592 -576 0
v -608 -576 0
v -608 -560 0
v -592 -560 0
v -736 -592 0
v -752 -592 0
v -752 -576 0
v -736 -576 0
v -720 -592 0
v -736 -592 0
v -736 -576 0
v -720 -576 0
v -704 -592 0
v -720 -592 0
v -720 -576 0
v -704 -576 0
v -688 -592 0
v -704 -592 0
v -704 -576 0
v -688 -576 0
v -672 -592 0
v -688 -592 0
v -688 -576 0
v -672 -576 0
v -656 -592 0
v -672 -592 0
v -672 -576 0
v -656 -576 0
v -640 -592 0
v -656 -592 0
v -656 -576 0
v -640 -576 0
v -624 -592 0
v -640 -592 0
v -640 -576 0
v -624 -576 0
v -608 -592 0
v -624 -592 0
v -624 -576 0
v -608 -576 0
v -592 -592 0
v -608 -592 0
v -608 -576 0
v -592 -576 0
v -736 -608 0
v -752 -608 0
v -752 -592 0
v -736 -592 0
v -720 -608 0
v -736 -608 0
v -736 -592 0
v -720 -592 0
v -704 -608 0
v -720 -608 0
v -720 -592 0
v -704 -592 0
v -688 -608 0
v -704 -608 0
v -704 -592 0
v -688 -592 0
v -672 -608 0
v -688 -608 0
v -688 -592 0
v -672 -592 0
v -656 -608 0
v -672 -608 0
v -672 -592 0
v -656 -592 0
v -640 -608 0
v -656 -608 0
v -656 -592 0
v -640 -592 0
v -624 -608 0
v -640 -608 0
v -640 -592 0
v -624 -592 0
v -608 -608 0
v -624 -608 0
v -624 -592 0
v -608 -592 0
v -592 -608 0
v -608 -608 0
v -608 -592 0
v -592 -592 0
v -736 -624 0
v -752 -624 0
v -752 -608 0
v -736 -608 0
v -720 -624 0
v -736 -624 0
v -736 -608 0
v -720 -608 0
v -704 -624 0
v -720 -624 0
v -720 -608 0
v -704 -608 0
v -688 -624 0
v -704 -624 0
v -704 -608 0
v -688 -608 0
v -672 -624 0
v -688 -624 0
v -688 -608 0
v -672 -608 0
v -656 -624 0
v -672 -624 0
v -672 -608 0
v -656 -608 0
v -640 -624 0
v -656 -624 0
v -656 -608 0
v -640 -608 0
v -624 -624 0
v -640 -624 0
v -640 -608 0
v -624 -608 0
v -608 -624 0
v -624 -624 0
v -624 -608 0
v -608 -608 0
v -592 -624 0
v -608 -624 0
v -608 -608 0
v -592 -608 0
v -736 -640 0
v -752 -640 0
v -752 -624 0
v -736 -624 0
v -720 -640 0
v -736 -640 0
v -736 -624 0
v -720 -624 0
v -704 -640 0
v -720 -640 0
v -720 -624 0
v -704 -624 0
v -688 -640 0
v -704 -640 0
v -704 -624 0
v -688 -624 0
v -672 -640 0
v -688 -640 0
v -688 -624 0
v -672 -624 0
v -656 -640 0
v -672 -640 0
v -672 -624 0
v -656 -624 0
v -640 -640 0
v -656 -640 0
v -656 -624 0
v -640 -624 0
v -624 -640 0
v -640 -640 0
v -640 -624 0
v -624 -624 0
v -608 -640 0
v -624 -640 0
v -624 -624 0
v -608 -624 0
v -592 -640 0
v -608 -640 0
v -608 -624 0
v -592 -624 0
v -736 -656 0
v -752 -656 0
v -752 -640 0
v -736 -640 0
v -720 -656 0
v -736 -656 0
v -736 -640 0
v -720 -640 0
v -704 -656 0
v -720 -656 0
v -720 -640 0
v -704 -640 0
v -688 -656 0
v -704 -656 0
v -704 -640 0
v -688 -640 0
v -672 -656 0
v -688 -656 0
v -688 -640 0
v -672 -640 0
v -656 -656 0
v -672 -656 0
v -672 -640 0
v -656 -640 0
v -640 -656 0
v -656 -656 0
v -656 -640 0
v -640 -640 0
v -624 -656 0
v -640 -656 0
v -640 -640 0
v -624 -640 0
v -608 -656 0
v -624 -656 0
v -624 -640 0
v -608 -640 0
v -592 -656 0
v -608 -656 0
v -608 -640 0
v -592 -640 0
v -736 -672 0
v -752 -672 0
v -752 -656 0
v -736 -656 0
v -720 -672 0
v -736 -672 0
v -736 -656 0
v -720 -656 0
v -704 -672 0
v -720 -672 0
v -720 -656 0
v -704 -656 0
v -688 -672 0
v -704 -672 0
v -704 -656 0
v -688 -656 0
v -672 -672 0
v -688 -672 0
v -688 -656 0
v -672 -656 0
v -656 -672 0
v -672 -672 0
v -672 -656 0
v -656 -656 0
v -640 -672 0
v -656 -672 0
v -656 -656 0
v -640 -656 0
v -624 -672 0
v -640 -672 0
v -640 -656 0
v -624 -656 0
v -608 -672 0
v -624 -672 0
v -624 -656 0
v -608 -656 0
v -592 -672 0
v -608 -672 0
v -608 -656 0
v -592 -656 0
v -736 -688 0
v -752 -688 0
v -752 -672 0
v -736 -672 0
v -720 -688 0
v -736 -688 0
v -736 -672 0
v -720 -672 0
v -704 -688 0
v -720 -688 0
v -720 -672 0
v -704 -672 0
v -688 -688 0
v -704 -688 0
v -704 -672 0
v -688 -672 0
v -672 -688 0
v -688 -688 0
v -688 -672 0
v -672 -672 0
v -656 -688 0
v -672 -688 0
v -672 -672 0
v -656 -672 0
v -640 -688 0
v -656 -688 0
v -656 -672 0
v -640 -672 0
v -624 -688 0
v -640 -688 0
v -640 -672 0
v -624 -672 0
v -608 -688 0
v -624 -688 0
v -624 -672 0
v -608 -672 0
v -592 -688 0
v -608 -688 0
v -608 -672 0
v -592 -672 0
v -736 -704 0
v -752 -704 0
v -752 -688 0
v -736 -688 0
v -720 -704 0
v -736 -704 0
v -736 -688 0
v -720 -688 0
v -704 -704 0
v -720 -704 0
v -720 -688 0
v -704 -688 0
v -688 -704 0
v -704 -704 0
v -704 -688 0
v -688 -688 0
v -672 -704 0
v -688 -704 0
v -688 -688 0
v -672 -688 0
v -656 -704 0
v -672 -704 0
v -672 -688 0
v -656 -688 0
v -640 -704 0
v -656 -704 0
v -656 -688 0
v -640 -688 0
v -624 -704 0
v -640 -704 0
v -640 -688 0
v -624 -688 0
v -608 -704 0
v -624 -704 0
v -624 -688 0
v -608 -688 0
v -592 -704 0
v -608 -704 0
v -608 -688 0
v -592 -688 0
v -736 -720 0
v -752 -720 0
v -752 -704 0
v -736 -704 0
v -720 -720 0
v -736 -720 0
v -736 -704 0
v -720 -704 0
v -704 -720 0
v -720 -720 0
v -720 -704 0
v -704 -704 0
v -688 -720 0
v -704 -720 0
v -704 -704 0
v -688 -704 0
v -672 -720 0
v -688 -720 0
v -688 -704 0
v -672 -704 0
v -656 -720 0
v -672 -720 0
v -672 -704 0
v -656 -704 0
v -640 -720 0
v -656 -720 0
v -656 -704 0
v -640 -704 0
v -624 -720 0
v -640 -720 0
v -640 -704 0
v -624 -704 0
v -608 -720 0
v -624 -720 0
v -624 -704 0
v -608 -704 0
v -592 -720 0
v -608 -720 0
v -608 -704 0
v -592 -704 0

# Texture cooridinates (Count = 16)
vt 0.2073171 0.3344262
vt 0.2398374 0.3344262
vt 0.2398374 0.3868852
vt 0.2073171 0.3868852
vt 0.1727642 0.3344262
vt 0.2052846 0.3344262
vt 0.2052846 0.3868852
vt 0.1727642 0.3868852
vt 0.3109756 0.557377
vt 0.3434959 0.557377
vt 0.3434959 0.6098361
vt 0.3109756 0.6098361
vt 0.5528455 0.2786885
vt 0.5853658 0.2786885
vt 0.5853658 0.3311476
vt 0.5528455 0.3311476

# Normal
vn 0 0 -1

# Mesh description
g test_mesh_0001

# Faces
f 1/1/1 2/2/1 3/3/1 4/4/1
f 5/1/1 6/2/1 7/3/1 8/4/1
f 9/5/1 10/6/1 11/7/1 12/8/1
f 13/9/1 14/10/1 15/11/1 16/12/1
f 17/9/1 18/10/1 19/11/1 20/12/1
f 21/9/1 22/10/1 23/11/1 24/12/1
f 25/9/1 26/10/1 27/11/1 28/12/1
f 29/9/1 30/10/1 31/11/1 32/12/1
f 33/9/1 34/10/1 35/11/1 36/12/1
f 37/9/1 38/10/1 39/11/1 40/12/1
f 41/13/1 42/14/1 43/15/1 44/16/1
f 45/13/1 46/14/1 47/15/1 48/16/1
f 49/13/1 50/14/1 51/15/1 52/16/1
f 53/13/1 54/14/1 55/15/1 56/16/1
f 57/13/1 58/14/1 59/15/1 60/16/1
f 61/13/1 62/14/1 63/15/1 64/16/1
f 65/13/1 66/14/1 67/15/1 68/16/1
f 69/13/1 70/14/1 71/15/1 72/16/1
f 73/13/1 74/14/1 75/15/1 76/16/1
f 77/13/1 78/14/1 79/15/1 80/16/1
f 81/13/1 82/14/1 83/15/1 84/16/1
f 85/1/1 86/2/1 87/3/1 88/4/1
f 89/13/1 90/14/1 91/15/1 92/16/1
f 93/13/1 94/14/1 95/15/1 96/16/1
f 97/13/1 98/14/1 99/15/1 100/16/1
f 101/13/1 102/14/1 103/15/1 104/16/1
f 105/13/1 106/14/1 107/15/1 108/16/1
f 109/13/1 110/14/1 111/15/1 112/16/1
f 113/13/1 114/14/1 115/15/1 116/16/1
f 117/13/1 118/14/1 119/15/1 120/16/1
f 121/13/1 122/14/1 123/15/1 124/16/1
f 125/13/1 126/14/1 127/15/1 128/16/1
f 129/13/1 130/14/1 131/15/1 132/16/1
f 133/13/1 134/14/1 135/15/1 136/16/1
f 137/13/1 138/14/1 139/15/1 140/16/1
f 141/13/1 142/14/1 143/15/1 144/16/1
f 145/13/1 146/14/1 147/15/1 148/16/1
f 149/13/1 150/14/1 151/15/1 152/16/1
f 153/13/1 154/14/1 155/15/1 156/16/1
f 157/13/1 158/14/1 159/15/1 160/16/1
f 161/13/1 162/14/1 163/15/1 164/16/1
f 165/13/1 166/14/1 167/15/1 168/16/1
f 169/13/1 170/14/1 171/15/1 172/16/1
f 173/13/1 174/14/1 175/15/1 176/16/1
f 177/13/1 178/14/1 179/15/1 180/16/1
f 181/13/1 182/14/1 183/15/1 184/16/1
f 185/13/1 186/14/1 187/15/1 188/16/1
f 189/13/1 190/14/1 191/15/1 192/16/1
f 193/13/1 194/14/1 195/15/1 196/16/1
f 197/13/1 198/14/1 199/15/1 200/16/1
f 201/13/1 202/14/1 203/15/1 204/16/1
f 205/13/1 206/14/1 207/15/1 208/16/1
f 209/13/1 210/14/1 211/15/1 212/16/1
f 213/13/1 214/14/1 215/15/1 216/16/1
f 217/13/1 218/14/1 219/15/1 220/16/1
f 221/13/1 222/14/1 223/15/1 224/16/1
f 225/13/1 226/14/1 227/15/1 228/16/1
f 229/13/1 230/14/1 231/15/1 232/16/1
f 233/13/1 234/14/1 235/15/1 236/16/1
f 237/13/1 238/14/1 239/15/1 240/16/1
f 241/13/1 242/14/1 243/15/1 244/16/1
f 245/13/1 246/14/1 247/15/1 248/16/1
f 249/13/1 250/14/1 251/15/1 252/16/1
f 253/13/1 254/14/1 255/15/1 256/16/1
f 257/13/1 258/14/1 259/15/1 260/16/1
f 261/13/1 262/14/1 263/15/1 264/16/1
f 265/13/1 266/14/1 267/15/1 268/16/1
f 269/13/1 270/14/1 271/15/1 272/16/1
f 273/13/1 274/14/1 275/15/1 276/16/1
f 277/13/1 278/14/1 279/15/1 280/16/1
f 281/13/1 282/14/1 283/15/1 284/16/1
f 285/13/1 286/14/1 287/15/1 288/16/1
f 289/13/1 290/14/1 291/15/1 292/16/1
f 293/13/1 294/14/1 295/15/1 296/16/1
f 297/13/1 298/14/1 299/15/1 300/16/1
f 301/13/1 302/14/1 303/15/1 304/16/1
f 305/13/1 306/14/1 307/15/1 308/16/1
f 309/13/1 310/14/1 311/15/1 312/16/1
f 313/13/1 314/14/1 315/15/1 316/16/1
f 317/13/1 318/14/1 319/15/1 320/16/1
f 321/13/1 322/14/1 323/15/1 324/16/1
f 325/13/1 326/14/1 327/15/1 328/16/1
f 329/13/1 330/14/1 331/15/1 332/16/1
f 333/13/1 334/14/1 335/15/1 336/16/1
f 337/13/1 338/14/1 339/15/1 340/16/1
f 341/13/1 342/14/1 343/15/1 344/16/1
f 345/13/1 346/14/1 347/15/1 348/16/1
f 349/13/1 350/14/1 351/15/1 352/16/1
f 353/13/1 354/14/1 355/15/1 356/16/1
f 357/13/1 358/14/1 359/15/1 360/16/1
f 361/13/1 362/14/1 363/15/1 364/16/1
f 365/13/1 366/14/1 367/15/1 368/16/1
f 369/13/1 370/14/1 371/15/1 372/16/1
f 373/13/1 374/14/1 375/15/1 376/16/1
f 377/13/1 378/14/1 379/15/1 380/16/1
f 381/13/1 382/14/1 383/15/1 384/16/1
f 385/13/1 386/14/1 387/15/1 388/16/1
f 389/13/1 390/14/1 391/15/1 392/16/1
f 393/13/1 394/14/1 395/15/1 396/16/1
f 397/13/1 398/14/1 399/15/1 400/16/1
f 401/13/1 402/14/1 403/15/1 404/16/1
f 405/13/1 406/14/1 407/15/1 408/16/1
f 409/13/1 410/14/1 411/15/1 412/16/1
f 413/13/1 414/14/1 415/15/1 416/16/1
f 417/13/1 418/14/1 419/15/1 420/16/1
f 421/13/1 422/14/1 423/15/1 424/16/1
f 425/13/1 426/14/1 427/15/1 428/16/1
f 429/13/1 430/14/1 431/15/1 432/16/1
f 433/13/1 434/14/1 435/15/1 436/16/1
f 437/13/1 438/14/1 439/15/1 440/16/1
f 441/13/1 442/14/1 443/15/1 444/16/1
f 445/13/1 446/14/1 447/15/1 448/16/1
f 449/13/1 450/14/1 451/15/1 452/16/1
f 453/13/1 454/14/1 455/15/1 456/16/1
f 457/13/1 458/14/1 459/15/1 460/16/1
f 461/13/1 462/14/1 463/15/1 464/16/1
f 465/13/1 466/14/1 467/15/1 468/16/1
f 469/13/1 470/14/1 471/15/1 472/16/1
f 473/13/1 474/14/1 475/15/1 476/16/1
f 477/13/1 478/14/1 479/15/1 480/16/1

